<!-- Generator: Adobe Illustrator 19.2.1, SVG Export Plug-In  -->
<svg version="1.1"
	 xmlns="http://www.w3.org/2000/svg" xmlns:xlink="http://www.w3.org/1999/xlink" xmlns:a="http://ns.adobe.com/AdobeSVGViewerExtensions/3.0/"
	 x="0px" y="0px" width="600px" height="600px" viewBox="0 0 600 600" enable-background="new 0 0 600 600" xml:space="preserve">
<defs>
</defs>
<g>
	<circle fill="#FFFFFF" cx="300" cy="300" r="300"/>
	<path fill="#5BC2E7" d="M420.5,185h-22.3v-22.3c0-12.3-10-22.3-22.3-22.3h0c-12.3,0-22.3,10-22.3,22.3V185h-44.6v44.6h44.6v44.6
		h44.5v-44.6h22.3c12.3,0,22.3-10,22.3-22.3S432.8,185,420.5,185z"/>
	<g>
		<path fill="#10069F" d="M353.7,292.3v50.3c0,34.8-16.5,50.3-53.7,50.3c-37.1,0-53.7-15.5-53.7-50.3V229.6h44.6V185h-89.1v157.6
			c0,56.7,34.1,94.8,98.2,94.8c64.1,0,98.2-38.1,98.2-94.8v-50.3H353.7z"/>
	</g>
</g>
</svg>
